<svg xmlns="http://www.w3.org/2000/svg" viewBox="0 0 53.59 53.96"><defs><style>.cls-1{fill:#fff;fill-rule:evenodd;}</style></defs><title>Asset 1</title><g id="Layer_2" data-name="Layer 2"><g id="Layer_1-2" data-name="Layer 1"><path class="cls-1" d="M46.87,9.14a25.63,25.63,0,0,0-22.24-9A26.93,26.93,0,0,0,3.12,13.67C-1.33,21.53-1,33,3.85,40.66c.48.8,2.64,2.82,2.72,3.82.09,1.25-1,3.27-1.44,4.67-.49,1.72-.84,3.2-1.28,4.81,3.47-1.29,6.84-2.68,10.32-4,7.35,4.67,18.55,3.31,24.95,0A26.12,26.12,0,0,0,46.87,9.14Zm-10.39,33c-3.2.67-8.09-1.43-10.72-3.09A33.22,33.22,0,0,1,13.82,26c-2.39-5.12-3.13-13,2.39-14.86a1.24,1.24,0,0,1,.45-.25c1,.3,2.38.25,3.42.5.39,1.23.86,2.67,1.31,4.19s1.36,3.06,1.16,4.18c-.3,1.81-2.47,2-3.24,3.62a29.16,29.16,0,0,0,9.5,10.81c1.86-.4,2.34-2.64,4.19-2.72,1.14-.06,2.87,1.07,4.21,1.68s2.68,1.35,3.91,1.82A6,6,0,0,1,36.48,42.13Z"/></g></g></svg>