<svg xmlns="http://www.w3.org/2000/svg" viewBox="0 0 79.04 68.31"><defs><style>.cls-1{fill:#fff;}</style></defs><title>Asset 5</title><g id="Layer_2" data-name="Layer 2"><g id="Layer_1-2" data-name="Layer 1"><path class="cls-1" d="M57.55,0A21.46,21.46,0,0,0,41.27,7.47l0,0,0,0L27.75,22.29a2.6,2.6,0,0,0-.38,3.07,2.63,2.63,0,0,0,2.82,1.36c7.13-1.22,13.84-4.94,20-11.06a2.32,2.32,0,0,1,3.27,0L74.6,36.84A30,30,0,0,0,79,21.49h0A21.51,21.51,0,0,0,57.55,0Z"/><path class="cls-1" d="M31,31.27a8,8,0,0,1-1.28.11,7.3,7.3,0,0,1-5.36-12.21L36.37,6A21.49,21.49,0,0,0,0,21.49c0,.22,0,.44,0,.65a2.53,2.53,0,0,0,0,.28c0,.12,0,.25,0,.38s0,.22,0,.34,0,.2,0,.3l0,.42a1.79,1.79,0,0,1,0,.23v0A31.26,31.26,0,0,0,4.76,37.38a7.63,7.63,0,0,1,12.7,3.29,7.62,7.62,0,0,1,9.73,6,7.65,7.65,0,0,1,6,1.58,7.57,7.57,0,0,1,2.59,3.91A6.13,6.13,0,0,1,37,51.88a7.55,7.55,0,0,1,5.62,1.62,7.64,7.64,0,0,1,2.58,8.09,98.83,98.83,0,0,0,14-8.5A62.39,62.39,0,0,0,72,40.75L51.75,20.53C45.38,26.39,38.4,30,31,31.27Z"/><path class="cls-1" d="M12,40.45a3,3,0,0,0-1.88-.66l-.35,0a3,3,0,0,0-2,1.12l-4.63,5.8a3,3,0,0,0,4.74,3.78l4.63-5.8A3,3,0,0,0,12,40.45Z"/><path class="cls-1" d="M21.56,45.61a3.06,3.06,0,0,0-4.26.48L12.68,51.9a3,3,0,0,0,4.73,3.77L22,49.87A3,3,0,0,0,21.56,45.61Z"/><path class="cls-1" d="M30.75,56.07A3,3,0,0,0,26,52.3l-4.63,5.8a3,3,0,0,0,4.74,3.78Z"/><path class="cls-1" d="M39.7,57.11a3,3,0,0,0-1.88-.66,1.94,1.94,0,0,0-.34,0,3,3,0,0,0-2,1.12l-4.63,5.8a3,3,0,0,0,.48,4.25,3,3,0,0,0,4.25-.47l4.63-5.81A3,3,0,0,0,39.7,57.11Z"/></g></g></svg>