<svg xmlns="http://www.w3.org/2000/svg" viewBox="0 0 67.61 72.16"><defs><style>.cls-1{fill:#fff;}</style></defs><title>Asset 6</title><g id="Layer_2" data-name="Layer 2"><g id="Layer_1-2" data-name="Layer 1"><path class="cls-1" d="M58.54,19.24a8.86,8.86,0,0,0,.28-2.11l0-1.51C58.91,11.31,55.75,7.33,50,4.4,44.58,1.68,37.44.12,29.86,0S15.1,1.24,9.65,3.79C3.77,6.55.49,10.44.43,14.75l0,1.55C.34,20.76,3.56,24.89,9.49,28a10.81,10.81,0,0,0-.3,2.1v.41C3.34,33.35.09,37.33,0,41.73l0,1.62c0,2.86,1.36,5.58,4,7.94a8.46,8.46,0,0,0-.61,3l0,2.23c-.06,4.31,3.09,8.3,8.89,11.23C17.66,70.48,24.8,72,32.38,72.15s14.76-1.23,20.21-3.79c5.89-2.76,9.16-6.65,9.23-11l0-2.23c0-2.87-1.36-5.59-4-8a8.68,8.68,0,0,0,.6-3v.19c5.85-2.88,9.1-6.86,9.16-11.26l0-2.26C67.67,26.43,64.45,22.3,58.54,19.24ZM5,13c.88-2.14,3.21-4.19,6.69-5.82,4.95-2.32,11.55-3.54,18.58-3.44s13.59,1.53,18.47,4c3.43,1.74,5.7,3.86,6.51,6-3.06,5.16-13.5,8.79-25.26,8.62S7.86,18.24,5,13Zm-.4,26.37A11,11,0,0,1,9.42,34.5c.9,3.4,3.87,6.5,8.61,8.9,5.37,2.72,12.51,4.28,20.09,4.39.74,0,1.48,0,2.21,0a52.19,52.19,0,0,1-10.78.95C17.79,48.55,7.46,44.6,4.55,39.36Zm53.71,14C55.19,58.53,44.75,62.16,33,62c-10.21-.16-19.34-3.16-23.47-7.38,5.35,2.65,12.39,4.17,19.88,4.29s14.76-1.24,20.21-3.79a20,20,0,0,0,6.6-4.68A8.29,8.29,0,0,1,58.26,53.37Zm-20-15.75C28,37.47,18.83,34.44,14.73,30.18a52,52,0,0,0,15.06,2.35c7.58.11,14.76-1.23,20.22-3.79a18.67,18.67,0,0,0,7.33-5.59c3.25,1.7,5.41,3.76,6.2,5.85C60.47,34.16,50,37.79,38.27,37.62Z"/></g></g></svg>