<svg xmlns="http://www.w3.org/2000/svg" viewBox="0 0 83.77 71.44"><defs><style>.cls-1{fill:#fff;}</style></defs><title>Asset 7</title><g id="Layer_2" data-name="Layer 2"><g id="Layer_1-2" data-name="Layer 1"><ellipse class="cls-1" cx="41.75" cy="17.47" rx="14.38" ry="17.47"/><path class="cls-1" d="M69,60.91c-.26-16.81-2.46-21.6-19.26-24.63,0,0-2.36,3-7.87,3s-7.88-3-7.88-3C17.36,39.28,15,44,14.72,60.36c0,1.34,0,1.41,0,1.25v1.77s4,8.06,27.17,8.06S69,63.38,69,63.38V62.07C69,62.17,69,62,69,60.91Z"/><path class="cls-1" d="M61.71,31.82c6.45,0,11.68-6.35,11.68-14.19S71.67,3.44,61.71,3.44A16.49,16.49,0,0,0,57.35,4C59.65,8.2,60,13.36,60,17.47a24,24,0,0,1-3.58,12.79A10.08,10.08,0,0,0,61.71,31.82Z"/><path class="cls-1" d="M83.74,52.91c-.21-13.65-2-17.54-15.64-20,0,0-1.92,2.45-6.39,2.45l-.54,0A17.92,17.92,0,0,1,68.5,41c3.3,4.52,4,10.59,4.21,19.5,9.18-1.81,11.06-5.6,11.06-5.6V53.86C83.77,53.94,83.76,53.79,83.74,52.91Z"/><path class="cls-1" d="M21.79,31.82a10.08,10.08,0,0,0,5.33-1.56,23.94,23.94,0,0,1-3.59-12.79c0-4.11.31-9.27,2.61-13.51a16.46,16.46,0,0,0-4.35-.52c-10,0-11.69,6.36-11.69,14.19S15.33,31.82,21.79,31.82Z"/><path class="cls-1" d="M22.6,35.34l-.54,0c-4.47,0-6.39-2.45-6.39-2.45C2,35.37.24,39.26,0,52.91c0,.88,0,1,0,.94v1.07s1.88,3.79,11.06,5.6c.16-8.91.91-15,4.21-19.5A17.92,17.92,0,0,1,22.6,35.34Z"/></g></g></svg>