<svg xmlns="http://www.w3.org/2000/svg" viewBox="0 0 184.78 61.94"><defs><style>.cls-1{fill:#cace30;}.cls-2{fill:#198241;}.cls-3{fill:#6cab43;}.cls-4{fill:#fff;}</style></defs><title>Asset 4</title><g id="Layer_2" data-name="Layer 2"><g id="Layer_1-2" data-name="Layer 1"><path class="cls-1" d="M0,46.17v-33S1.82,0,13.5,0H49.37S61.88,2,61.88,13V51.1S58.42,61.94,49.54,61.94H10.38S1.23,59.7,0,48a17.89,17.89,0,0,1,0-1.81"/><path class="cls-2" d="M31.27,50.11s23.24-3.3,20.88-27.27C51.33,14.46,48.78,8,48.69,8.38c-1.47,6.57-15,13-18.27,22.67C29,35.3,28,38,31.27,50.11"/><path class="cls-3" d="M30.42,50.11s21.7-9,13.43-31.86c-2.89-8-7-13.67-7-13.3.21,6.8-11.26,16.4-12,26.71-.33,4.51-.67,7.36,5.56,18.45"/><path class="cls-2" d="M31.2,50.11s-20.64-9-12.37-31.86c2.89-8,7-13.67,7-13.3-.2,6.8,11.27,16.4,12,26.71.34,4.51-.39,7.36-6.62,18.45"/><path class="cls-3" d="M31.44,50.11s-23.25-3.3-20.9-27.27C11.36,14.46,13.91,8,14,8.38c1.5,6.57,15,13,18.28,22.67,1.44,4.25,2.46,6.9-.82,19.06"/><path class="cls-2" d="M31.44,50.11S8.07,46.66,10.54,22.84c0,0,21.38,3.78,20.9,27.27"/><path class="cls-4" d="M0,46.17s7.58-6.57,14.32-6.41,20.23,3,22.21,2.79.65,3.45-6.91,3.12-7.57,1-7.57,1,8.39,5.77,16.13,1a59.13,59.13,0,0,0,7.23-4.43c2.8-2.14,9.39-2.47.66,3.62S33.24,61.62,20.74,53.89,2.55,55.77,2.55,55.77s-.21-.33-.55-1A18.67,18.67,0,0,1,.07,48.2a16.54,16.54,0,0,1-.07-2"/><path class="cls-4" d="M93.68,27.21a30.52,30.52,0,0,1-9,1.52c-4.93,0-8.5-1.24-11-3.66a13.12,13.12,0,0,1-3.81-9.81c.05-9,6.59-14.09,15.45-14.09a18.53,18.53,0,0,1,7.51,1.32L91.53,7.38a14.88,14.88,0,0,0-6.31-1.17c-5.09,0-8.93,2.89-8.93,8.74,0,5.56,3.48,8.85,8.5,8.85a8.2,8.2,0,0,0,3-.4V17.75H83.61V13H93.68Z"/><rect class="cls-4" x="98.38" width="6.09" height="28.44"/><path class="cls-4" d="M128.79,18.42c0,7.18-5.09,10.46-10.35,10.46-5.74,0-10.16-3.76-10.16-10.09s4.18-10.38,10.48-10.38c6,0,10,4.14,10,10m-14.21.21c0,3.37,1.41,5.89,4,5.89,2.37,0,3.89-2.36,3.89-5.89,0-2.92-1.12-5.89-3.89-5.89-2.93,0-4,3-4,5.89"/><path class="cls-4" d="M132.4,28.44c.08-1.28.16-3.64.16-5.85V0h6.1V11.18h.08a6.9,6.9,0,0,1,5.94-2.77c4.7,0,8.14,3.89,8.09,9.9,0,7.06-4.48,10.57-9,10.57a6.53,6.53,0,0,1-5.91-3.16h-.07l-.24,2.72Zm6.26-8.32a4.43,4.43,0,0,0,.12,1.07,3.68,3.68,0,0,0,3.56,2.89c2.61,0,4.22-2,4.22-5.53,0-3-1.36-5.45-4.22-5.45a3.79,3.79,0,0,0-3.56,3,5.06,5.06,0,0,0-.12,1.12Z"/><path class="cls-4" d="M167.71,28.44l-.38-2h-.12a7,7,0,0,1-5.6,2.4,6,6,0,0,1-6.34-6c0-5.09,4.57-7.53,11.52-7.49V15.1c0-1-.57-2.51-3.58-2.51a11,11,0,0,0-5.41,1.48l-1.13-3.93a16.21,16.21,0,0,1,7.62-1.72c6.55,0,8.63,3.84,8.63,8.45v6.82a30,30,0,0,0,.29,4.75ZM167,19.19c-3.21,0-5.69.72-5.69,3.09a2.18,2.18,0,0,0,2.4,2.32,3.34,3.34,0,0,0,3.18-2.25,4.78,4.78,0,0,0,.11-1Z"/><rect class="cls-4" x="177.74" width="6.09" height="28.44"/><path class="cls-4" d="M76.45,61.49l-6.6-27.72h6.72l2.1,11.43c.61,3.29,1.19,6.87,1.64,9.67h.09c.46-3,1.12-6.34,1.8-9.75l2.36-11.35h6.66l2.23,11.67c.63,3.26,1.08,6.23,1.49,9.31H95c.41-3.08,1-6.34,1.6-9.63L98.9,33.77h6.38L98.11,61.49h-6.8L89,49.56c-.53-2.8-1-5.39-1.32-8.56h-.08c-.49,3.14-.95,5.76-1.62,8.56L83.32,61.49Z"/><path class="cls-4" d="M118,61.49l-.37-2h-.12a7.28,7.28,0,0,1-5.78,2.46,6.16,6.16,0,0,1-6.48-6.17c0-5.22,4.69-7.73,11.81-7.69v-.29c0-1.07-.58-2.59-3.67-2.59a11.33,11.33,0,0,0-5.55,1.52l-1.16-4a16.64,16.64,0,0,1,7.82-1.76c6.71,0,8.86,4,8.86,8.67v7a32,32,0,0,0,.28,4.89Zm-.73-9.5c-3.31,0-5.85.74-5.85,3.17a2.24,2.24,0,0,0,2.47,2.38,3.43,3.43,0,0,0,3.25-2.3,5.22,5.22,0,0,0,.13-1.07Z"/><path class="cls-4" d="M134.6,49.85h.09c.45-.83.94-1.64,1.44-2.43l4.08-6h7.53l-7.2,8.14,8.23,12h-7.7l-4.87-8.27-1.6,2v6.3h-6.26V32.29h6.26Z"/><path class="cls-4" d="M162.32,61.49l-.37-2h-.13a7.26,7.26,0,0,1-5.77,2.46,6.16,6.16,0,0,1-6.49-6.17c0-5.22,4.7-7.73,11.81-7.69v-.29c0-1.07-.58-2.59-3.67-2.59a11.3,11.3,0,0,0-5.55,1.52l-1.16-4a16.69,16.69,0,0,1,7.83-1.76c6.71,0,8.86,4,8.86,8.67v7a30.56,30.56,0,0,0,.29,4.89Zm-.75-9.5c-3.29,0-5.84.74-5.84,3.17a2.24,2.24,0,0,0,2.47,2.38,3.4,3.4,0,0,0,3.25-2.3,3.74,3.74,0,0,0,.12-1.07Z"/><path class="cls-4" d="M173.31,61.49V46h-2.62v-4.6h2.62v-.79a9.13,9.13,0,0,1,2.56-6.74,8.17,8.17,0,0,1,5.56-2,12.07,12.07,0,0,1,3.35.42l-.26,4.81a6.93,6.93,0,0,0-2-.29c-2.06,0-2.92,1.6-2.92,3.57v1h4V46h-4V61.49Z"/></g></g></svg>