<svg xmlns="http://www.w3.org/2000/svg" viewBox="0 0 62.82 59.8"><defs><style>.cls-1{fill:#cace30;}.cls-2{fill:#fff;}</style></defs><title>Asset 3</title><g id="Layer_2" data-name="Layer 2"><g id="Layer_1-2" data-name="Layer 1"><path class="cls-1" d="M62.82,22.43V42.81a7.41,7.41,0,0,1-7.4,7.4h0V59.8l-11.7-9.59H22.35a7.41,7.41,0,0,1-7.4-7.4V38.58L19,35.19H40.47a7.42,7.42,0,0,0,7.4-7.4V15h7.55A7.53,7.53,0,0,1,62.82,22.43Z"/><path class="cls-2" d="M40.47,0H7.4A7.41,7.41,0,0,0,0,7.4V27.79a7.42,7.42,0,0,0,7.4,7.4h0v9.59l11.7-9.59H40.47a7.42,7.42,0,0,0,7.4-7.4V7.4A7.41,7.41,0,0,0,40.47,0Z"/></g></g></svg>