<svg xmlns="http://www.w3.org/2000/svg" xmlns:xlink="http://www.w3.org/1999/xlink" viewBox="0 0 274.66 260.63"><defs><style>.cls-1,.cls-3{fill:#fff;}.cls-2{fill:url(#linear-gradient);}.cls-3{font-size:26.76px;stroke:#fff;stroke-miterlimit:10;font-family:Canaro-LightDEMO, Canaro;}</style><linearGradient id="linear-gradient" x1="204.29" y1="39.04" x2="245.76" y2="78.29" gradientTransform="translate(-118.87 -9.43) rotate(2.57)" gradientUnits="userSpaceOnUse"><stop offset="0.23" stop-color="#c9ce30"/><stop offset="1" stop-color="#046937"/></linearGradient></defs><title>Asset 8</title><g id="Layer_2" data-name="Layer 2"><g id="Layer_1-2" data-name="Layer 1"><path class="cls-1" d="M169.8,202.48s-8-15.33,7.77-24.32C183.08,175,188.21,173.8,188,174c-3.35,3.78-1.08,14.94-5.52,21.2-1.94,2.75-3.72,4-12.7,7.28"/><path class="cls-1" d="M62,16.17c.52.57.9,1,1.15,1.19A7.48,7.48,0,0,1,65.25,24,13.19,13.19,0,0,1,64,27.45a11,11,0,0,1-2.64,3.18.37.37,0,0,1-.43.05c-.11-.07-.13-.16,0-.25a8.73,8.73,0,0,0,1.82-3.55,8.32,8.32,0,0,0,.08-3.54,6.32,6.32,0,0,0-1.15-2.65A5.2,5.2,0,0,0,59.44,19L59,18.83l-.14,0-.93-.08L57,18.71l-1.78.16a4.81,4.81,0,0,1-1,.16l-.43.12L52,19.62l-.43.11-.78.54-.29.08-.79.53-.78.54c-.14.16-.21.25-.36.41s-.24.27-.25.23a.42.42,0,0,1,.11-.19,2,2,0,0,1,.38-.31,6.34,6.34,0,0,0-.74.73l-.59.7a3,3,0,0,0-.42.75l-.47.56-.35.42-.28.71a10.15,10.15,0,0,0-.6,1.23,11.07,11.07,0,0,0-.5,3.95,12.86,12.86,0,0,0,1.21,4.72,21.32,21.32,0,0,0,2.3,3.81,44.73,44.73,0,0,0,2.9,3.44c.94,1,1.87,2.13,2.79,3.17s1.84,2.11,2.76,3.19c1.76,2.26,3.47,4.57,5,6.89a71.55,71.55,0,0,1,4.31,7.93Q68,67.8,69.56,72c-.25-.44-.38-.66-.64-1.1a10.29,10.29,0,0,1,.74,1.86c.18.62.41,1.27.6,1.9a50.52,50.52,0,0,1,2,12.19,32.52,32.52,0,0,1-1.79,12.48A27.66,27.66,0,0,1,67.75,105a34.89,34.89,0,0,1-4,5.09,20.86,20.86,0,0,1-5.07,3.95,20.43,20.43,0,0,1-6.51,2.5c-.67.11-1.4.18-2.1.3a18.29,18.29,0,0,1-2.13.21c-.72,0-1.45,0-2.19,0s-1.44,0-2.12-.08a33.67,33.67,0,0,1-3.56-.46,26.72,26.72,0,0,1-3.5-.87,29.49,29.49,0,0,1-3.24-1.26c-1-.47-2-1-3-1.54a29,29,0,0,1-4.53-3.06c-.91-.77-1.79-1.57-2.62-2.34s-1.65-1.65-2.44-2.51a25.33,25.33,0,0,1-2.05-2.45q-.91-1.29-1.74-2.67a30.49,30.49,0,0,1-4.36-12.43,17.11,17.11,0,0,1-.21-2.51,18.91,18.91,0,0,1,.18-2.67c.15-1.06.34-2.15.55-3.24A24.12,24.12,0,0,1,14,75.77a17.16,17.16,0,0,1,.84-2c.33-.67.66-1.37,1-2.06a11.46,11.46,0,0,1,1.49-2.31c.73-.91,1.5-1.83,2.31-2.72s1.81-1.7,2.7-2.52a9.23,9.23,0,0,1,2.3-1.6,14.4,14.4,0,0,1,2.83-.91,6,6,0,0,1,2.74,0,7.36,7.36,0,0,1,2.14.85,3.89,3.89,0,0,1,1.43,1.59,4.07,4.07,0,0,1,.45,2.13A6,6,0,0,1,32.45,70c-.22.22-.42.45-.63.7s-.4.51-.59.79c-.32.47-.58.88-.79,1.24s-.43.76-.66,1.2l.75-1.55c-.23.44-.46.89-.67,1.36s-.45.92-.68,1.36a21.64,21.64,0,0,0-1.82,5.36,20,20,0,0,0,2.45,13A28.7,28.7,0,0,0,32.17,97a27.38,27.38,0,0,0,2.89,3.21c.93.86,2,1.67,2.9,2.43a19,19,0,0,0,3.13,2.05c.61.29,1.21.56,1.8.82a16.47,16.47,0,0,0,1.87.7,7.51,7.51,0,0,0,1.47.26c.52,0,1.05.11,1.55.13a7.91,7.91,0,0,0,1.12,0l1.08-.13,2.06-.64a9.64,9.64,0,0,0,1.8-1.08,10.43,10.43,0,0,0,2-1.85,15,15,0,0,0,2.13-3.15,23.71,23.71,0,0,0,1.71-4.91,28.44,28.44,0,0,0,.37-8,34.54,34.54,0,0,0-1-5.84q-.72-2.85-1.56-5.67A101.71,101.71,0,0,0,53.36,63.8a69.46,69.46,0,0,0-4.26-8.1,60.09,60.09,0,0,0-5.37-7.52c-1.83-2.19-3.59-4.43-5.22-6.74a16.65,16.65,0,0,1-2.93-7.76,18.53,18.53,0,0,1,0-4.22,15.35,15.35,0,0,1,1.16-4.4,18.48,18.48,0,0,1,2.57-4.24,17.8,17.8,0,0,1,4.29-3.77,21.94,21.94,0,0,1,6-2.76c.48-.13,1-.26,1.53-.37s1.06-.2,1.56-.27a3.06,3.06,0,0,1,.91,0L54,13.5a4.41,4.41,0,0,1,1.58.22,16.12,16.12,0,0,1,2.19.58,15.18,15.18,0,0,1,1.8.91A7.09,7.09,0,0,1,61,16.32Zm-9.73,3.37c.38-.11.54-.17.49-.19a.84.84,0,0,0-.37,0l-.14,0Z"/><path class="cls-1" d="M209.13,88.7a5,5,0,0,1,.48,2.71,7.56,7.56,0,0,1-.73,2.6,5.58,5.58,0,0,1-1.72,2,10,10,0,0,1-2.55,1.35,7.73,7.73,0,0,1-3.11.4,9.17,9.17,0,0,1-2.92-.64,7.52,7.52,0,0,1-4.16-3.76,22.54,22.54,0,0,1-1.79-5.53,14.2,14.2,0,0,1-.29-2.78c0-.9,0-1.84-.06-2.75a32.37,32.37,0,0,1,.19-3.75c.13-1.27.28-2.51.45-3.71s.25-1.9.43-3.17l-1.26.81a34.39,34.39,0,0,1-4.25,3.06,15.52,15.52,0,0,1-5.05,1.94,12.64,12.64,0,0,1-6.51-.41A12.25,12.25,0,0,1,171,73.81a13.93,13.93,0,0,1-2.88-4.62,14.49,14.49,0,0,1-.87-5.13,13.26,13.26,0,0,1,1-4.77,29.18,29.18,0,0,1,2.27-4.5,20.58,20.58,0,0,1,2.85-3.67A40.72,40.72,0,0,1,177,47.83,25.07,25.07,0,0,1,181.45,45a17.22,17.22,0,0,1,5.2-1.61,21.06,21.06,0,0,1,3.09-.14,7.42,7.42,0,0,1,3,.72,21.4,21.4,0,0,1,2.42,1.33,3.35,3.35,0,0,1,1.45,2.42,1.2,1.2,0,0,1-.41,1,2.16,2.16,0,0,1-1.16.62l-.4,0a3.18,3.18,0,0,1-1.38.17l-.8-.09a1.28,1.28,0,0,1-.41.07,1.21,1.21,0,0,0-.41.06,4.85,4.85,0,0,1-1.09.1,2.72,2.72,0,0,1-.68,0,2.07,2.07,0,0,0-.68,0l-.83.24-.84.25c-.19.12-.43.26-.71.41a7,7,0,0,0-.72.42l-.86.56A24.69,24.69,0,0,0,183,53.87c-.7.83-1.36,1.68-2,2.56l0-.32c-.55.72-.82,1.09-1.36,1.81a21.35,21.35,0,0,0-2,4.33,6,6,0,0,0-.23,2.53,8.11,8.11,0,0,0,.36,1.63,4.6,4.6,0,0,0,.55,1,1.11,1.11,0,0,0,.46.57l.38,0,.41-.29a5.08,5.08,0,0,0,1-.61c.27-.23.56-.47.84-.73.66-.58,1.28-1.19,1.86-1.81s1.17-1.28,1.77-1.92,1.37-1.46,2.07-2.21,1.4-1.48,2.1-2.2a105.34,105.34,0,0,0,7.59-9.14c.56-.8,1.11-1.59,1.63-2.39s1.12-1.6,1.65-2.38a6.15,6.15,0,0,1,3.14-2.41,8.45,8.45,0,0,1,4.51-.15,7.17,7.17,0,0,1,3.62,1.82,4.39,4.39,0,0,1,1.16,1.81,3,3,0,0,1,.14,2c-.45,1.62-.67,2.43-1.12,4.06a14.71,14.71,0,0,0-.48,1.93c-.11.67-.23,1.36-.35,2.06-.44,2.47-.79,4.91-1.08,7.33s-.57,4.87-.84,7.36c-.36,2.95-.54,4.42-.91,7.36-.09,1-.2,2-.32,2.88a20.25,20.25,0,0,0-.18,2.8,22.26,22.26,0,0,0,.41,4q.16.47.33.87c.12.28.23.57.34.88Z"/><path class="cls-1" d="M75.46,169.09a27.78,27.78,0,0,1,1.93,3.12c.55,1,1.14,2.12,1.65,3.18A27.53,27.53,0,0,1,81,181.14a45,45,0,0,1,.91,5.93,33.48,33.48,0,0,1-.94,11.46,49.69,49.69,0,0,1-4.15,10.77,47,47,0,0,1-7.27,10,25.1,25.1,0,0,1-4.89,4,15.08,15.08,0,0,1-3,1.39l-1.57.57a11.33,11.33,0,0,1-1.66.38l-2.22.38a8.83,8.83,0,0,1-2.25.09L52.16,226a9.88,9.88,0,0,1-1.69-.21c-.57-.12-1.13-.24-1.66-.37A13.52,13.52,0,0,1,47.2,225l-1.45-.53a21,21,0,0,1-3.08-1.53,8.91,8.91,0,0,1-1.38-.91c-.41-.34-.82-.69-1.21-1.07l-.81-.71a20.6,20.6,0,0,1-4.08-5.58c-.29-.61-.54-1.24-.8-1.84s-.48-1.23-.69-1.87a10.06,10.06,0,0,0-.46-1.14,7.06,7.06,0,0,1-.34-1.18c-.2-.83-.64-1.82-.91-2.77s-.53-1.89-.78-2.81c-.61-2.25-.92-3.38-1.51-5.64s-.88-3.4-1.45-5.67c-.32-1.18-.47-1.78-.78-3a7.34,7.34,0,0,0-.34-1.4,8.15,8.15,0,0,1-.33-1.4l.16.27c-.16-.45-.29-.87-.41-1.26a7.16,7.16,0,0,1-.27-1.32,4.07,4.07,0,0,0-.29-1.19,4,4,0,0,1-.28-1.21l.15.28a8.89,8.89,0,0,1-.28-3,1.7,1.7,0,0,1,.27-1.47,4.35,4.35,0,0,1,2.59-1.76,6,6,0,0,1,3.52,0,5.37,5.37,0,0,1,1.4.65,3.69,3.69,0,0,1,1,1A7.56,7.56,0,0,1,35,178a2.83,2.83,0,0,0,.31.45,2.68,2.68,0,0,1,.3.45l1,1.95,2,3.91c2.84,5.58,4.26,8.37,7.09,14l3.55,7c.41.8.79,1.6,1.14,2.39a14.42,14.42,0,0,0,1.27,2.35,6.81,6.81,0,0,0,1.17,1.27l.62.47.35-.09a10.62,10.62,0,0,0,1.54-.84,27.22,27.22,0,0,0,2.07-1.91c.63-.66,1.26-1.34,1.89-2.06a34.55,34.55,0,0,0,4.56-7.33,24.4,24.4,0,0,0,1.83-7.26A22.41,22.41,0,0,0,58.17,173a19.22,19.22,0,0,0-3-2,10.35,10.35,0,0,0-1.43-.6l-.92-.09-.8.2-1.2.3-1.47.69a33.34,33.34,0,0,1-2.93,2c-1,.61-2,1.28-3.12,1.89a9.17,9.17,0,0,1-3.34,1.07,15.64,15.64,0,0,1-3.54.09,9.17,9.17,0,0,1-2.65-.62,12,12,0,0,1-2.2-1.17,5.89,5.89,0,0,1-2-2.09c-.19-.71-.28-1.07-.46-1.78a4.31,4.31,0,0,1,.47-2.55,7.29,7.29,0,0,1,1.73-2.27c.36-.32.75-.64,1.16-1s.83-.67,1.29-1a28.63,28.63,0,0,1,4.54-2.86,10.9,10.9,0,0,1,1.11-.62l1.16-.52a12.77,12.77,0,0,0,1-.9l.86-.86a30.65,30.65,0,0,0,3.82-5.12,21,21,0,0,0,2.11-5.82A17.23,17.23,0,0,0,48.1,141a13.24,13.24,0,0,0-1.87-4.62,9.55,9.55,0,0,0-1.83-2.09,22.36,22.36,0,0,0-3-1.68,11.4,11.4,0,0,0-2.67-.8,17.37,17.37,0,0,0-2.09-.21l-1.93.19-2.26.6c-.55.29-1.1.57-1.66.83s-1.11.53-1.65.82a29.46,29.46,0,0,0-3.35,2.43q-1.52,1.29-2.88,2.64a35.28,35.28,0,0,0-4.29,5.29,51.2,51.2,0,0,0-3.19,5.54c-.85,1.81-1.27,2.72-2.08,4.53-.4.92-.73,1.82-1,2.7s-.62,1.78-1,2.69L9.9,163.73C9.42,165,9,166.29,8.53,167.6c-.45,1.58-.67,2.37-1.09,4l-.27,1.17A4.36,4.36,0,0,1,6.63,174l-.78,1.91a1.71,1.71,0,0,1-1.12.93,4.91,4.91,0,0,1-1.69.28,3.26,3.26,0,0,1-1.64-.4,1.45,1.45,0,0,1-.74-1.05c-.11-.48-.16-.72-.27-1.21A2.47,2.47,0,0,1,.21,174c-.09-.23-.08-.17,0,.15A3.93,3.93,0,0,1,0,172.83c0,.3,0,.34,0,.12a.85.85,0,0,0,0-.43c0-.28,0-.41.07-.68,0-.65,0-1,0-1.63.05-1.85.08-2.78.15-4.64.14-1.42.29-2.84.46-4.24a28.62,28.62,0,0,1,.92-4.18c.37-1.3.73-2.67,1.17-4s.92-2.63,1.44-3.95,1.2-2.81,1.89-4.19,1.46-2.78,2.31-4.2a34.22,34.22,0,0,1,2.5-3.64c.95-1.19,1.95-2.34,3-3.46a39.33,39.33,0,0,1,9.14-7,32.32,32.32,0,0,1,6.35-2.61,24.87,24.87,0,0,1,7-1.1,30,30,0,0,1,10.44,1.53,19.37,19.37,0,0,1,4.4,2.14,31.6,31.6,0,0,1,3.58,2.76A17.21,17.21,0,0,1,59.63,136a28.75,28.75,0,0,1,1.89,7.37,27.58,27.58,0,0,1-1.26,11.85c-.36,1-.53,1.45-.88,2.41A18.23,18.23,0,0,1,63,158.92a26.06,26.06,0,0,1,6.76,4.31q1.52,1.36,2.79,2.73A29.74,29.74,0,0,1,75,168.88Z"/><path class="cls-1" d="M98,142.85a5.63,5.63,0,0,1,.93,1.81,7.52,7.52,0,0,1,.27,2.1,6,6,0,0,1-.27,2.42l-.49.68-.45,1-.74,1-.72,1c-.6.77-1.17,1.53-1.69,2.29s-1.11,1.5-1.68,2.2c-.42.53-.87,1.06-1.33,1.54a14.35,14.35,0,0,1-1.53,1.37c-.49.4-1,.82-1.55,1.18a8.82,8.82,0,0,1-1.69.89,12.05,12.05,0,0,1-8.88.48A10.63,10.63,0,0,1,75,161.22a19.5,19.5,0,0,1-2.72-2.43,19.79,19.79,0,0,1-2.24-3.14,8.69,8.69,0,0,1-.6-1c-.19-.37-.4-.74-.62-1.11a35.24,35.24,0,0,1-2.13-6.16,34.71,34.71,0,0,1,0-17.65,32,32,0,0,1,2-5.57A42.87,42.87,0,0,1,72,118.5a18.76,18.76,0,0,1,4.62-4.75,18.55,18.55,0,0,1,3.59-1.93,12.67,12.67,0,0,1,4-.92,10.15,10.15,0,0,1,4.44.79,9,9,0,0,1,3.54,2.64,9.24,9.24,0,0,1,1.62,3,11.34,11.34,0,0,1,.57,3.45c0,.63,0,1.25,0,1.87a7.5,7.5,0,0,1-.18,1.79c-.14.58-.29,1.13-.46,1.68s-.36,1.1-.56,1.69a37.39,37.39,0,0,1-4.82,10.07,13.71,13.71,0,0,1-1.94,2.18,22.68,22.68,0,0,1-2.28,1.84c-.31.2-.6.38-.87.57a5,5,0,0,1-.88.47,10.6,10.6,0,0,1-1.15.42c-.49.12-1,.3-1.45.42s-.94.23-1.46.34l-.3,0,.31,1.5a25.4,25.4,0,0,0,1.6,3.44c.33.43.5.65.82,1.09l.35.25.29-.06,1.1-.51a5,5,0,0,0,.63-.58l.62-.68c.87-1.15,1.31-1.73,2.19-2.87l.6-.88a10.69,10.69,0,0,1,.7-.89l.25-.35c.22-.25.45-.51.67-.79a3.71,3.71,0,0,1,.8-.69c.29-.21.63-.5,1-.73s.74-.44,1.11-.63a5.25,5.25,0,0,1,2.37-.45,5.41,5.41,0,0,1,2.37.3,7.89,7.89,0,0,1,2.48,2Zm-21-3.68c.16-.23.3-.47.43-.7s.23-.48.33-.69a3.88,3.88,0,0,1,.52-.83c.19-.25.37-.49.53-.73a10,10,0,0,0,.7-1.28l.93-1.73A21.62,21.62,0,0,0,81.88,130c.38-1.07.71-2.2,1-3.35.21-.79.39-1.58.51-2.32a17.25,17.25,0,0,0,.21-2.28l-.11-.6a1.64,1.64,0,0,0-.62.21,9.11,9.11,0,0,0-1.14.93,22.87,22.87,0,0,0-2,3.08A25.43,25.43,0,0,0,77.37,132a34.1,34.1,0,0,0-.55,7.18Z"/><path class="cls-1" d="M130.8,111a4.59,4.59,0,0,1,.06,1.94,2.16,2.16,0,0,1-.61,1,9.49,9.49,0,0,1-1,.85,3.9,3.9,0,0,1-1.62.65,3.29,3.29,0,0,1-.64.09,2.28,2.28,0,0,0-.63.09,5.59,5.59,0,0,0-1-.07h-1l-1.27,0a11.34,11.34,0,0,0-1.59.45,8,8,0,0,0-2.11,1.09,12.12,12.12,0,0,0-2.16,2,17.59,17.59,0,0,0-2,3.76,18.72,18.72,0,0,0-.83,4.51,31.42,31.42,0,0,0,0,4.55,16.59,16.59,0,0,0,.22,1.81c.1.57.22,1.16.34,1.79.72,3.58,1.15,5.35,2.15,8.87.49,1.73,1,3.43,1.63,5.11s1.15,3.34,1.67,5c-.23-.59-.34-.88-.56-1.47.22.59.33.88.56,1.47a4.55,4.55,0,0,1,.53,2.74c-.14.47-.21.7-.34,1.17a3.38,3.38,0,0,1-1.22,1.52,8.58,8.58,0,0,1-1.81,1,4.74,4.74,0,0,1-2.25.24,8.87,8.87,0,0,1-2.36-.56,6.51,6.51,0,0,1-2.08-1.38,6.78,6.78,0,0,1-1.46-2c-1-2.14-1.4-3.22-2.24-5.39-1.49-3.82-2.15-5.76-3.32-9.68q-.82-2.84-1.46-5.61c-.42-1.86-.76-3.76-1-5.71.1.54.16.81.27,1.35-.35-2.29-.5-3.44-.73-5.76-.14-1.84-.28-3.69-.41-5.57a28,28,0,0,1,.18-5.64c.27-2,.43-3,.8-5.07.14-.87.29-1.76.44-2.66a10.83,10.83,0,0,1,.85-2.68l-.36.57a7.84,7.84,0,0,1,.87-2.07,3.58,3.58,0,0,0,.38-.79,3.09,3.09,0,0,1,.38-.8c.29-.34.44-.51.74-.84a3.38,3.38,0,0,1,3.13-1.13,2.87,2.87,0,0,1,2.54,1.71,6.76,6.76,0,0,1,.49,2.06c.09.54.14.81.23,1.34a7.45,7.45,0,0,1,.12.8,7,7,0,0,1,0,.8c0,.65,0,1-.08,1.61-.06,1.49-.08,2.24-.09,3.72a18.67,18.67,0,0,1,3.35-2.12,19.74,19.74,0,0,1,3.93-1.44,16.39,16.39,0,0,1,4.18-.48,12.68,12.68,0,0,1,2.7.3c.42.11.85.26,1.27.41s.84.31,1.26.48a4.61,4.61,0,0,1,1.48,1,2.73,2.73,0,0,1,.8,1.28Z"/><path class="cls-1" d="M180.52,146.68a3.75,3.75,0,0,1,.76,1.78,2.89,2.89,0,0,1-.3,1.83c-.21.39-.38.77-.53,1.12l-.52,1.12c-.36.91-.54,1.37-.87,2.28-.8,1.75-1.17,2.64-1.86,4.43s-.8,2.56-1.26,4.29c-.23.68-.34,1-.56,1.7-.13.33-.25.66-.37,1a4.36,4.36,0,0,1-.47.91,7.14,7.14,0,0,1-.63.82l-.72.84a5.46,5.46,0,0,1-.83.77c-.3.21-.61.45-.93.7a6.68,6.68,0,0,1-1,.65l-1.06.48a.52.52,0,0,1-.3.12c-.35.09-.71.17-1.09.24s-.75.12-1.1.16a7.5,7.5,0,0,1-1.3,0,4.67,4.67,0,0,0-.75,0,2.36,2.36,0,0,1-.65,0,13.34,13.34,0,0,1-3.41-.92l-.89-.39a7.16,7.16,0,0,1-.78-.4c-.58-.41-1.11-.81-1.58-1.2s-.92-.8-1.36-1.23c-1.34-1.41-2.6-2.85-3.77-4.3a53.14,53.14,0,0,1-3.28-4.53,20.21,20.21,0,0,1-1.23-2l-1.1-2c.15,1.84.24,2.76.47,4.6q.71,4.88,1.6,9.75a76.84,76.84,0,0,0,2.34,9.72,7.43,7.43,0,0,1,.29,3.63c-.3.63-.45.94-.73,1.57a5.33,5.33,0,0,1-1.83,1.95,8.61,8.61,0,0,1-2.6,1.18,8.33,8.33,0,0,1-3.19,0,8.91,8.91,0,0,1-3.14-.94,9.86,9.86,0,0,1-4.59-4.66,14.23,14.23,0,0,1-.72-1.86c-.18-.61-.33-1.25-.48-1.89-.21-.89-.47-1.77-.73-2.61s-.48-1.7-.67-2.61c-.53-1.85-.78-2.77-1.25-4.63-.15-.92-.32-1.79-.51-2.63a26.19,26.19,0,0,1-.45-2.63,99.38,99.38,0,0,1-1.12-15.26c-.09-2.93-.09-4.4,0-7.32.14-1.43.26-2.86.36-4.28s.28-2.85.52-4.26A101.47,101.47,0,0,1,140,101.18c.45-.86.68-1.29,1.15-2.14.66-1.4,1-2.1,1.71-3.49,1.57-2.74,2.41-4.1,4.17-6.76a2.15,2.15,0,0,1,1.62-.81,4.9,4.9,0,0,1,2.22.28c1.68.63,2.36,1.51,2,2.65a109.8,109.8,0,0,0-3.16,10.77c-.2.52-.29.79-.48,1.32a104.81,104.81,0,0,0-4.55,24.22l.89-.74c.3-.28.63-.56,1-.86a11.41,11.41,0,0,1,1.27-.91c.3-.2.82-.54,1.57-1a21.18,21.18,0,0,1,2.74-1.36,24.71,24.71,0,0,1,3.64-1.18,16.3,16.3,0,0,1,4.19-.5,22.15,22.15,0,0,1,3.05.3,12.11,12.11,0,0,1,2.88.88,18.37,18.37,0,0,1,1.72.86,3.4,3.4,0,0,1,1.21,1.17,3.1,3.1,0,0,1,.42,1.77,2.68,2.68,0,0,1-1.44,1.84,5.06,5.06,0,0,1-1.77.75l-1.21.1a19.62,19.62,0,0,0-2.8.16,9.07,9.07,0,0,0-1.3.27l-1.31.36a9.87,9.87,0,0,0-2.6,1.44c-.21.21-.42.41-.62.59a5.16,5.16,0,0,0-.62.67,9.9,9.9,0,0,0-1.32,3,7.7,7.7,0,0,0-.21,2.32c.05.76.09,1.57.22,2.35a19.72,19.72,0,0,0,1.29,4.19c.57,1.39,1.2,2.74,1.88,4l-.68-1.29c.46.69.87,1.39,1.26,2.1l1.15,2.17c.55,1,.84,1.51,1.4,2.52.4.5.77,1,1.13,1.49s.73,1,1.13,1.48c.12-.41.19-.61.32-1,.51-1.35,1.06-2.68,1.64-4a36,36,0,0,1,2-3.81c0,.09,0,.14,0,.24,0-.1,0-.15,0-.24a5.53,5.53,0,0,1,3.28-2.87,7.66,7.66,0,0,1,2.8-.5,15.51,15.51,0,0,1,2.94.29,8.18,8.18,0,0,1,2.48.88,5.77,5.77,0,0,1,1.77,1.44Z"/><path class="cls-1" d="M210,149.84a5.83,5.83,0,0,1,.63,2.67,9.24,9.24,0,0,1-.41,2.7,6,6,0,0,1-1.26,2.27,8.93,8.93,0,0,1-2,1.67,5.4,5.4,0,0,1-2.54.77,6.3,6.3,0,0,1-2.48-.29,6.43,6.43,0,0,1-3.78-3.29,26.57,26.57,0,0,1-2-5.37,16.33,16.33,0,0,1-.5-2.77c-.09-.9-.21-1.84-.31-2.76-.13-1.21-.18-2.49-.19-3.79s0-2.56,0-3.79,0-2,.06-3.24c-.4.38-.59.57-1,1a30.86,30.86,0,0,1-3.28,3.55,12.32,12.32,0,0,1-4,2.51,8.89,8.89,0,0,1-5.49.28,10,10,0,0,1-4.77-2.78,14.51,14.51,0,0,1-2.92-4.36,16.84,16.84,0,0,1-1.31-5.07,15.56,15.56,0,0,1,.28-4.9,31.73,31.73,0,0,1,1.42-4.75,22,22,0,0,1,2-4,36.36,36.36,0,0,1,2.78-3.69,21.42,21.42,0,0,1,3.49-3.37,13.67,13.67,0,0,1,4.28-2.19,16.48,16.48,0,0,1,2.63-.49,5.46,5.46,0,0,1,2.64.39,16.43,16.43,0,0,1,2.21,1.06,3.41,3.41,0,0,1,1.48,2.27,1.45,1.45,0,0,1-.25,1.08,1.88,1.88,0,0,1-.94.76h-.35a2.29,2.29,0,0,1-1.15.33h-.69a1.08,1.08,0,0,1-.35.11,1,1,0,0,0-.35.11,4.25,4.25,0,0,1-.92.23,2.3,2.3,0,0,1-.57.11,1.56,1.56,0,0,0-.58.12l-.69.33-.68.34c-.16.15-.35.32-.57.5a6.31,6.31,0,0,0-.57.5l-.68.66a23.29,23.29,0,0,0-1.67,2.58c-.51.91-1,1.84-1.41,2.78v-.32c-.39.79-.58,1.18-1,2a24.69,24.69,0,0,0-1.22,4.56,7.22,7.22,0,0,0,.08,2.58,9.48,9.48,0,0,0,.47,1.6,5.21,5.21,0,0,0,.57.95,1.19,1.19,0,0,0,.44.52H183l.31-.33a4.29,4.29,0,0,0,.75-.72c.21-.26.42-.53.63-.82.5-.66,1-1.34,1.39-2s.86-1.41,1.3-2.12,1-1.62,1.53-2.45,1-1.65,1.56-2.45A114.56,114.56,0,0,0,196,111.47c.41-.87.79-1.73,1.17-2.6s.8-1.74,1.18-2.59a5.83,5.83,0,0,1,2.47-2.79,6.42,6.42,0,0,1,3.86-.7,5.71,5.71,0,0,1,3.29,1.39,4.4,4.4,0,0,1,1.15,1.67,3.36,3.36,0,0,1,.3,2l-.6,4.23a18.53,18.53,0,0,0-.23,2c0,.69-.08,1.4-.13,2.12q-.21,3.81-.27,7.51c0,2.46-.05,5-.06,7.51-.05,3-.08,4.51-.13,7.51,0,1,0,2,0,3a24.57,24.57,0,0,0,.09,2.84,26.69,26.69,0,0,0,.68,4c.11.3.23.58.35.84s.24.55.36.85Z"/><path class="cls-1" d="M256.42,188.33a6.08,6.08,0,0,1-.57,2.68l-.37.8a7.05,7.05,0,0,1-1.17,1.4,7.34,7.34,0,0,1-1.54,1.08,5.73,5.73,0,0,1-1.74.61,6.2,6.2,0,0,1-4-.73c-.42-.25-.84-.56-1.24-.83a8.77,8.77,0,0,1-1.2-.93c-.51-.5-.94-1-1.29-1.45a12,12,0,0,1-1.05-1.56,13.46,13.46,0,0,1-.92-1.68c-.23-.54-.47-1.19-.72-1.94a5.9,5.9,0,0,1-.31-1.33c0-.42-.15-.87-.22-1.29s-.09-.84-.14-1.26a7.08,7.08,0,0,1,0-1.21c0-.62.06-1.21.09-1.75s.13-1.15.17-1.71c.06-.73.06-1.37.13-1.73.17-.87.4-1.74.65-2.59s.48-1.71.73-2.54c.36-1.18.78-2.33,1.22-3.42s.93-2.15,1.47-3.19c.26-.53.52-1.07.77-1.64a11.14,11.14,0,0,1,.88-1.6,19.09,19.09,0,0,0,1.06-1.94,13.52,13.52,0,0,1,1.13-1.8c.39-.56.77-1.25,1.15-1.84l1.16-1.85c.41-.68.84-1.41,1.27-2.15a9.66,9.66,0,0,0,1-2.27c.29-1,.59-2,.86-3a13.14,13.14,0,0,0,.45-3.2c0-.3,0-.44-.07-.74l0-.1-.31-.12a1.52,1.52,0,0,0-.58-.35l-1.24-.49-1-.15a8.14,8.14,0,0,0-1-.05,16,16,0,0,0-2.93.65,17.29,17.29,0,0,0-4.06,2.36,26.59,26.59,0,0,0-4.15,4.37c-1.25,1.61-2.4,3.26-3.48,5-.51.9-1,1.77-1.5,2.6s-.95,1.74-1.4,2.63c-.36.71-.73,1.41-1.05,2.06s-.67,1.35-1,2.07c-.77,3.2-1.17,4.8-2,8q-.53,2.25-1.11,4.53c-.4,1.52-.77,3-1.13,4.53-1.94,7.39-2.92,11.08-4.92,18.46a9.32,9.32,0,0,1-1.59,3.95l-1.24,1.28a4.67,4.67,0,0,1-2.45,1,6.65,6.65,0,0,1-2.67-.24,7.18,7.18,0,0,1-2.44-1.68,9.76,9.76,0,0,1-2-2.42,11.79,11.79,0,0,1-1-3.09,10.16,10.16,0,0,1-.25-3.39,36,36,0,0,1,1-4.48l.08-.32q1.25-5.64,2.49-11.16T213.64,166q1.4-5.58,2.81-11.06c.94-3.64,2-7.34,3-11,.31-1.1.61-2.22.94-3.29s.68-2.17,1-3.26c1.82-5.53,3.57-10.71,5.34-15.37s3.38-8.79,4.91-12.1c1.24-2.7,2.41-4.91,3.29-6.58s1.76-3.33,2.65-5a32.08,32.08,0,0,1,1.94-3.29c1-1.48,1.55-2.21,2.59-3.68a1.48,1.48,0,0,1,1.4-.61,3.62,3.62,0,0,1,1.8.65,3.24,3.24,0,0,1,1.29,1.47,2.49,2.49,0,0,1,.07,1.68l-2.25,8.55a5.07,5.07,0,0,1-.31,1.62c-.19.47-.37,1-.54,1.54-.07.21-.23.81-.49,1.79s-.59,2.22-1,3.7-.82,3.16-1.31,5-1,3.76-1.51,5.65c-1.16,4.41-2.44,9.46-3.88,15l1.69-1.27a19.33,19.33,0,0,1,4.11-2.41,18.15,18.15,0,0,1,6.92-1.61,18.59,18.59,0,0,1,3.2.24,11,11,0,0,1,3.27,1.13,20,20,0,0,1,3.77,2.49,10.7,10.7,0,0,1,2.73,3.56,12.13,12.13,0,0,1,1.37,5,18.41,18.41,0,0,1-.49,4.12c-.24,1.07-.5,2.19-.82,3.25s-.73,2.16-1,3.17-.62,2.48-1,3.71-.78,2.45-1.13,3.66l-1.77,5-.64,1.53c-.2.47-.37,1-.55,1.57-.56,1.79-1.16,3.63-1.63,5.44a48.38,48.38,0,0,0-1.12,5.68l.13-.3c-.05.42-.07.62-.12,1a3.82,3.82,0,0,1,1.65.79,7.32,7.32,0,0,1,1.38,1.4,7,7,0,0,1,1,2.17,8.85,8.85,0,0,1,.38,2.36C256.63,188.87,256.56,188.69,256.42,188.33Z"/><path class="cls-1" d="M110.63,186.05l1.84,1.34a83.21,83.21,0,0,0,10.78,5.83l-.33.18c.61.25,1.23.47,1.86.67s1.24.41,1.86.64l.24,0a91.56,91.56,0,0,0,27.22,6,87.19,87.19,0,0,0,12.1,0c1.79-.13,3.62-.33,5.43-.61s3.61-.66,5.41-1.11l1.46-.39.1,0h0a71,71,0,0,0,9.64-3.38l2.92-1.12,1.61-.61a1.63,1.63,0,0,0,.65-.22,4,4,0,0,1,.75-.31,4.19,4.19,0,0,1,.75-.17l1.63-.21a1.61,1.61,0,0,1,1.64.44,3.61,3.61,0,0,1,1.11,1.71,4.08,4.08,0,0,1-1,4l-1,1c-.21.32.35,0,.35,0l-.67.52c-.26.21-.39.32-.66.52L194,202.51c-.8.56-1.62,1.12-2.47,1.67-1.95,1-3,1.49-4.94,2.44-1.66.8-3.36,1.55-5,2.17s-3.43,1.26-5.14,1.82a95.21,95.21,0,0,1-10.66,2.74,92.54,92.54,0,0,1-10.91,1.46c-1,.08-2,.17-3.05.24s-2,.06-3,0c-1.14,0-2.39,0-3.63-.1s-2.47-.18-3.69-.34c-3.16-.39-6.31-.92-9.43-1.56s-6.22-1.5-9.18-2.37c-1.45-.43-2.92-.91-4.29-1.46l-4.18-1.69a44.38,44.38,0,0,1-4.22-2c-1.32-.72-2.67-1.49-4-2.3-3-1.8-5.84-3.93-8.4-5.69a8.74,8.74,0,0,1-2.27-2.27,7.9,7.9,0,0,1-1.22-2.88,8.19,8.19,0,0,1,.12-3.1,7.61,7.61,0,0,1,1.23-2.9,12.62,12.62,0,0,1,2.27-2.23,7.28,7.28,0,0,1,2.89-1.32,11.61,11.61,0,0,1,3.19-.25,6.78,6.78,0,0,1,2.87.82c.69.38,1.34.78,2,1.2S110,185.56,110.63,186.05Z"/><path class="cls-1" d="M263.82,37.68s7.89,1.22,9.86-2.28,2-9.38-9.86-12c-2-.38-4.06-.76-6.62-1.21-4.39-.7-22-3.18-22-3.06-1.18-.08-2.35-.18-3.51-.29s-2.35-.18-3.51-.26c-1.45-.1-2.92-.19-4.4-.22l-4.4-.07c-1.65,0-3.29-.09-4.89-.14a36.1,36.1,0,0,0-4.77.14c-1.94.13-2.91.19-4.85.34a21.75,21.75,0,0,0-2.43.3c-.84.15-1.67.32-2.44.42a3.55,3.55,0,0,0-1.75.67,1.66,1.66,0,0,0-.69,1.43,2.61,2.61,0,0,0,.58,1.56,3.13,3.13,0,0,0,1.64,1.05c1,.27,2,.52,3.09.79s2.09.55,3.09.82,2,.52,2.89.71,1.9.43,2.9.63c1.83.37,3.73.67,5.64,1s3.8.7,5.62,1.05c.91.18,1.83.34,2.71.54s1.77.38,2.7.55l.42.08-.14.64A120.25,120.25,0,0,0,223.88,44q-2,6.64-3.67,13.56-1.61,6.59-2.78,13.28c-.78,4.45-1.54,8.92-2.29,13.38s-1.51,9-2.24,13.56c-.14.88-.3,1.76-.44,2.64a.47.47,0,0,1,.21.33c.73,4.86,2.84,11,9.1,9.46,2.26-.57,3.5-2.24,4.39-4.21l.21-1.42c1-7.15,2.08-14.34,3.08-21.48s2.22-14.27,3.6-21.32c.75-3.8,1.57-7.57,2.49-11.24s1.9-7.46,3-11.13c.36-1.16.76-2.32,1.13-3.46s.79-2.28,1.26-3.43c1.78.39,2.66.6,4.44,1,7.55,1.54,11.95,2.53,18.43,4.2Z"/><path class="cls-1" d="M168.29,44.47a6.76,6.76,0,0,0-1.57-3.32,8.6,8.6,0,0,0-3.39-2.4,18.05,18.05,0,0,0-7.94-1.11,22.06,22.06,0,0,0-3.32.5,27.22,27.22,0,0,0-3.19.94,27.43,27.43,0,0,0-6.24,2.75,40.71,40.71,0,0,0-5.34,3.84.2.2,0,0,1-.06.16.19.19,0,0,0-.07.16c0-.75,0-1.13,0-1.88.25-4.2.72-8.46,1.35-12.73.25-1.68.53-3.38.87-5.07s.74-3.39,1.19-5.09q1.47-5.62,3.31-10.73l.86-2.86c.17-.64.26-1,.43-1.59a1.43,1.43,0,0,1,.15-.64,3.06,3.06,0,0,0,.21-.74,3.22,3.22,0,0,0,.08-.74c0-.63,0-.94,0-1.57a1.51,1.51,0,0,0-.67-1.5A3.72,3.72,0,0,0,143.05,0a4.2,4.2,0,0,0-3.83,1.34l-.87,1c-.29.23-.29.12,0-.31-.17.26-.25.39-.43.65l-.42.65c-.48.8-1,1.58-1.42,2.34s-.94,1.54-1.4,2.33c-.82,1.82-1.23,2.72-2,4.53q-1.08,2.28-1.92,4.53c-.56,1.51-1.14,3-1.74,4.52q-1.64,4.62-3.07,9.18T123.4,40c-.1.36-.19.73-.28,1.1,3.14,12.32,7.54,26.67,3.4,37.05a20.22,20.22,0,0,1-5.17,7.91c.35,2.22.75,4.42,1,6.42a7.62,7.62,0,0,0,.89,2.74,7.94,7.94,0,0,0,1.89,2.26,8.91,8.91,0,0,0,2.74,1.37,8,8,0,0,0,3.12.44,12.05,12.05,0,0,0,3.07-.73,6.68,6.68,0,0,0,2.59-1.73,10.23,10.23,0,0,0,1.79-2.58,6.23,6.23,0,0,0,.64-2.84c0-.77-.08-1.52-.17-2.25s-.23-1.47-.4-2.24-.25-1.3-.41-2.18a4.94,4.94,0,0,0,2.49-.71c.95-.66,1.9-1.35,2.86-2.07a34.17,34.17,0,0,0,2.76-2.25c.65-.6,1.3-1.28,1.95-1.91l2-1.91A96.91,96.91,0,0,0,158,66.6a48.68,48.68,0,0,0,3.33-4.95c1-1.7,2-3.49,2.92-5.26a34.8,34.8,0,0,0,2.2-4.9,7.89,7.89,0,0,0,.46-1.25c.11-.42.21-.85.33-1.26a10.46,10.46,0,0,0,.37-2.1,8.88,8.88,0,0,0-.15-2.12Zm-11.62,6.32a69.18,69.18,0,0,1-9.2,12.78c-1.69,1.78-3.45,3.46-5.26,5.05s-3.69,3.13-5.62,4.61c0-.63,0-1.26,0-1.88s0-1.26,0-1.89a35.48,35.48,0,0,1,1-5.07c.24-.77.49-1.53.77-2.28s.59-1.51.92-2.29a38,38,0,0,1,4.55-6.76,27.89,27.89,0,0,1,2.54-2.27c.92-.72,1.86-1.44,2.83-2.16l-.4.33,1.59-1a24.38,24.38,0,0,1,3.86-1.93,15,15,0,0,1,2-.42h1.59c0,.25,0,.38,0,.63l.78.22A16.81,16.81,0,0,1,156.67,50.79Z"/><path class="cls-2" d="M90.91,100.34s-39.55-39.44-1-67c13.48-9.63,27.71-14,27.34-13.43C111,30.79,129,60.28,121.9,78.06c-3.08,7.8-7.21,11.58-31,22.28"/><text class="cls-3" transform="matrix(0.9, 0.43, -0.43, 0.9, 76.83, 226.3)">G</text><text class="cls-3" transform="translate(96.92 235.43) rotate(19.89)">l</text><text class="cls-3" transform="translate(103.36 237.95) rotate(15.68)">o</text><text class="cls-3" transform="translate(119.54 242.47) rotate(9.58)">b</text><text class="cls-3" transform="translate(136.28 245.27) rotate(3.23)">a</text><text class="cls-3" transform="translate(152.78 246.01) rotate(-1.31)">l</text><text class="cls-3" transform="translate(159.5 245.86) rotate(-3.92)"> </text><text class="cls-3" transform="translate(166.23 245.4) rotate(-6.55)"> </text><text class="cls-3" transform="matrix(0.98, -0.21, 0.21, 0.98, 170.65, 245.57)">W</text><text class="cls-3" transform="matrix(0.94, -0.35, 0.35, 0.94, 196.93, 239.46)">a</text><text class="cls-3" transform="matrix(0.9, -0.44, 0.44, 0.9, 212.62, 233.6)">k</text><text class="cls-3" transform="matrix(0.86, -0.51, 0.51, 0.86, 225.52, 227.37)">a</text><text class="cls-3" transform="matrix(0.82, -0.57, 0.57, 0.82, 239.55, 218.84)">f</text></g></g></svg>