<svg xmlns="http://www.w3.org/2000/svg" viewBox="0 0 967.11 1676.82"><defs><style>.cls-1{fill:#e5ece5;}</style></defs><title>Asset 34</title><g id="Layer_2" data-name="Layer 2"><g id="Layer_1-2" data-name="Layer 1"><path class="cls-1" d="M957.9,892l-25.25,5.74-.62,4.15c.77,5.33-5.17,13-10.42,14.18L455.29,1021.41v-226l73.84-28.81a12.4,12.4,0,0,1,15.58,6.23l2.13,2.53L569,767l-13.42-35.55-22.17,8.37,0,3.84c1.37,4.74-3.06,12.42-7.68,14.16l-70.41,27.46V289.11l119.92-20.47c6.92-1.06,14.12,6.32,15.7,13.14l1.71,3.2L618.21,281l-6.91-45L585.71,240l-.92,4.09c.39,5.38-5.93,13.57-11.25,14.39L455.29,278.64V5a5,5,0,0,0-10,0V337.86L285.89,301c-6.82-1.54-10.82-11.06-9.79-18l-.42-3.59-25.26-5.71-10,44.4,25.26,5.71,2.35-3.47c1.6-5.15,10.48-10.46,15.74-9.27l161.52,37.36V823.5L45.39,744.64A13.54,13.54,0,0,1,35,729.53l-.4-3.6L9.39,720.07,0,760.52l25.22,5.86,2.37-3.46c1.64-5.14,10.32-9.43,15.57-8.21l402,79.28.14,0v252.9l-97.39-3.3a13.55,13.55,0,0,1-12.51-13.4l-.93-3.5-25.81-2-3.27,41.39,25.82,2,1.83-3.78c.85-5.32,8.79-10.85,14.17-10.43l98.09,3.34v144.86L121.47,1393.47a13.55,13.55,0,0,1-17.47-5.56l-2.52-2.6L78,1396.17l17.41,37.7L118.89,1423l-.25-4.18c-1.86-5.06,2.36-13.78,7.25-16L445.25,1253.5v269.1L381,1628.76a13.54,13.54,0,0,1-17.51,5.42l-3.55-.68-13.07,22.35,35.84,21,13.07-22.36-2.6-3.28c-4.42-3.09-5.94-12.65-3.22-17.31l64.53-106.54a5.11,5.11,0,0,0,.7-2.63,4.91,4.91,0,0,0,.15-1.16V1416.88L648.11,1577c5.34,4.53,6.76,16.75,2.65,22.41l-1.29,3.38,19.75,16.75,29.45-34.71-19.75-16.75-3.69,2c-3.81,3.82-16.42,2.48-20.53-1l-197.43-164a5.09,5.09,0,0,0-2-1V1195.42l276.87,48.66a13.54,13.54,0,0,1,11.36,14.38l.64,3.57,25.56,4.15,6.66-41L750.82,1221l-2.14,3.61c-1.28,5.23-9.66,10.1-15,9.23L455.29,1185V1032L924,926.13a13.55,13.55,0,0,1,15.93,9.07l1.93,3.06,25.25-5.74Z"/></g></g></svg>